{
  "accessors": [
    {
      "name": "default_1_0_positions",
      "componentType": 5126,
      "count": 3575,
      "min": [
        -903.9494018554688,
        -389.8869934082031,
        -0.009866883978247643
      ],
      "max": [
        903.833984375,
        402.443603515625,
        509.3818054199219
      ],
      "type": "VEC3",
      "bufferView": 0,
      "byteOffset": 0
    },
    {
      "name": "default_1_0_normals",
      "componentType": 5126,
      "count": 3575,
      "min": [
        -1,
        -1,
        -1
      ],
      "max": [
        1,
        1,
        1
      ],
      "type": "VEC3",
      "bufferView": 1,
      "byteOffset": 0
    },
    {
      "name": "default_1_0_indices",
      "componentType": 5123,
      "count": 10887,
      "min": [
        0
      ],
      "max": [
        3574
      ],
      "type": "SCALAR",
      "bufferView": 2,
      "byteOffset": 0
    },
    {
      "name": "default_1_1_positions",
      "componentType": 5126,
      "count": 3544,
      "min": [
        -884.0128173828125,
        -402.23309326171875,
        197.2938995361328
      ],
      "max": [
        884.0128173828125,
        351.83648681640625,
        733.49267578125
      ],
      "type": "VEC3",
      "bufferView": 0,
      "byteOffset": 42900
    },
    {
      "name": "default_1_1_normals",
      "componentType": 5126,
      "count": 3544,
      "min": [
        -1,
        -0.9999226927757263,
        -0.9996262788772583
      ],
      "max": [
        1,
        0.9998096823692322,
        0.9998698830604553
      ],
      "type": "VEC3",
      "bufferView": 1,
      "byteOffset": 42900
    },
    {
      "name": "default_1_1_indices",
      "componentType": 5123,
      "count": 17604,
      "min": [
        0
      ],
      "max": [
        3543
      ],
      "type": "SCALAR",
      "bufferView": 2,
      "byteOffset": 21776
    },
    {
      "name": "default_1_2_positions",
      "componentType": 5126,
      "count": 33,
      "min": [
        -287.22589111328125,
        -389.2854919433594,
        0.00253901700489223
      ],
      "max": [
        871.0278930664062,
        401.36669921875,
        4.001830101013184
      ],
      "type": "VEC3",
      "bufferView": 0,
      "byteOffset": 85428
    },
    {
      "name": "default_1_2_indices",
      "componentType": 5123,
      "count": 51,
      "min": [
        0
      ],
      "max": [
        32
      ],
      "type": "SCALAR",
      "bufferView": 2,
      "byteOffset": 56984
    }
  ],
  "asset": {
    "generator": "obj2gltf",
    "version": "2.0"
  },
  "buffers": [
    {
      "name": "Furniture_Sofas-Armchairs_Fritz-Hansen_Series-3300T-3303FullUph",
      "byteLength": 228340,
      "uri": "data:application/octet-stream;base64,"
    }
  ],
  "bufferViews": [
    {
      "name": "bufferView_0",
      "buffer": 0,
      "byteLength": 85824,
      "byteOffset": 0,
      "byteStride": 12,
      "target": 34962
    },
    {
      "name": "bufferView_1",
      "buffer": 0,
      "byteLength": 85428,
      "byteOffset": 85824,
      "byteStride": 12,
      "target": 34962
    },
    {
      "name": "bufferView_2",
      "buffer": 0,
      "byteLength": 57088,
      "byteOffset": 171252,
      "target": 34963
    }
  ],
  "materials": [
    {
      "name": "714c2a01_79eb_4a5b_a5a6_b5e41b68ce15",
      "pbrMetallicRoughness": {
        "baseColorFactor": [
          0.823529,
          0.831373,
          0.835294,
          1
        ],
        "metallicFactor": 0,
        "roughnessFactor": 1
      },
      "emissiveFactor": [
        0,
        0,
        0
      ],
      "alphaMode": "OPAQUE",
      "doubleSided": false
    },
    {
      "name": "e1a50da1_cebf_419d_b441_a767bccb478c",
      "pbrMetallicRoughness": {
        "baseColorFactor": [
          0.141176,
          0.152941,
          0.172549,
          1
        ],
        "metallicFactor": 0,
        "roughnessFactor": 1
      },
      "emissiveFactor": [
        0,
        0,
        0
      ],
      "alphaMode": "OPAQUE",
      "doubleSided": false
    },
    {
      "name": "714c2a01_79eb_4a5b_a5a6_b5e41b68ce15-2",
      "pbrMetallicRoughness": {
        "baseColorFactor": [
          0.823529,
          0.831373,
          0.835294,
          1
        ],
        "metallicFactor": 0,
        "roughnessFactor": 1
      },
      "emissiveFactor": [
        0,
        0,
        0
      ],
      "alphaMode": "OPAQUE",
      "doubleSided": false
    }
  ],
  "meshes": [
    {
      "name": "default_1",
      "primitives": [
        {
          "attributes": {
            "POSITION": 0,
            "NORMAL": 1
          },
          "indices": 2,
          "material": 0,
          "mode": 4
        },
        {
          "attributes": {
            "POSITION": 3,
            "NORMAL": 4
          },
          "indices": 5,
          "material": 1,
          "mode": 4
        },
        {
          "attributes": {
            "POSITION": 6
          },
          "indices": 7,
          "material": 2,
          "mode": 4
        }
      ]
    }
  ],
  "nodes": [
    {
      "name": "default",
      "mesh": 0
    }
  ],
  "scene": 0,
  "scenes": [
    {
      "nodes": [
        0
      ]
    }
  ]
}
